<?xml version="1.0" encoding="UTF-8"?>
<svg width="1204px" height="287px" viewBox="0 0 1204 287" version="1.1" xmlns="http://www.w3.org/2000/svg" xmlns:xlink="http://www.w3.org/1999/xlink">
    <!-- Generator: Sketch 52.2 (67145) - http://www.bohemiancoding.com/sketch -->
    <title>certik-logotype-h-b</title>
    <desc>Created with Sketch.</desc>
    <g id="certik-logotype-h-b" stroke="none" stroke-width="1" fill="white" fill-rule="evenodd">
        <path d="M248.22,44.06 L249.73,53.19 C250.920443,61.6833759 251.471991,70.2540963 251.38,78.83 C251.370036,97.7817159 249.08366,116.663628 244.57,135.07 C238.465908,160.0765 227.833867,183.753718 213.2,204.93 C196.29,229.25 171.84,253.17 136.2,272.39 L131.84,274.74 L127.48,272.39 C91.84,253.17 67.4,229.25 50.48,204.93 C35.8465271,183.753496 25.2145208,160.076353 19.11,135.07 C14.5972304,116.66686 12.3108609,97.7883645 12.3,78.84 C12.207859,70.2640922 12.7594077,61.6933606 13.95,53.2 L15.46,44.07 C15.9763858,40.9495914 13.8654085,38.0013869 10.7449999,37.4850007 C7.62459131,36.9686145 4.67638656,39.0795915 4.16,42.2 L2.65,51.33 C1.3511929,60.440965 0.746120021,69.6374042 0.84,78.84 C0.847200975,98.7217227 3.24439803,118.530494 7.98,137.84 C14.4212907,164.204227 25.6362759,189.165958 41.07,211.49 C58.92,237.18 84.81,262.44 122.07,282.49 L129.15,286.3 C130.844187,287.215689 132.885813,287.215689 134.58,286.3 L141.65,282.49 C178.87,262.43 204.77,237.18 222.65,211.49 C238.083921,189.166069 249.298923,164.204301 255.74,137.84 C260.475697,118.530511 262.872896,98.7217286 262.88,78.84 C262.973572,69.6374127 262.368501,60.4409969 261.07,51.33 L259.56,42.2 C259.043614,39.0795912 256.095409,36.9686138 252.975,37.485 C249.854591,38.0013862 247.743614,40.9495912 248.26,44.07 L248.22,44.06 Z" id="Path" fill="#000000"></path>
        <path d="M46.75,37.84 L131.85,11.84 L218.85,38.4 C221.887566,39.3223151 225.097684,37.6075657 226.019999,34.5699998 C226.942315,31.5324339 225.227566,28.3223158 222.19,27.4 L133.52,0.33 C132.431642,-0.00350458917 131.268358,-0.00350458917 130.18,0.33 L43.4,26.82 C41.4350393,27.4166335 39.9376409,29.0162397 39.4718603,31.0162624 C39.0060797,33.0162851 39.6426801,35.1128733 41.1418603,36.5162624 C42.6410404,37.9196516 44.7750393,38.4166335 46.74,37.82 L46.75,37.84 Z" id="Path" fill="#000000"></path>
        <path d="M4.73,45.74 L126.73,283.86 C127.699352,285.756945 129.642549,286.958053 131.772734,286.97696 C133.902919,286.995867 135.867129,285.82944 136.87,283.95 L211.27,144.8 L211.38,144.58 L259,45.58 C260.380711,42.7302108 259.189788,39.3007129 256.339999,37.9200012 C253.490211,36.5392896 250.060712,37.7302115 248.68,40.58 L201.14,139.5 L132,268.9 L15,40.51 C14.0675369,38.6897316 12.2348038,37.5051974 10.1921736,37.4026 C8.14954338,37.3000026 6.20734018,38.2949291 5.09717327,40.0126002 C3.98700636,41.7302712 3.87753653,43.9097318 4.81,45.73 L4.73,45.74 Z" id="Path" fill="#000000"></path>
        <path d="M63.13,151.79 L198.8,151.79 C201.96183,151.79 204.525,149.22683 204.525,146.065 C204.525,142.90317 201.96183,140.34 198.8,140.34 L63.13,140.34 C59.9681698,140.34 57.405,142.90317 57.405,146.065 C57.405,149.22683 59.9681698,151.79 63.13,151.79" id="Path" fill="#000000"></path>
        <path d="M441.55,102.39 L353.29,102.39 C350.11566,102.406405 347.546405,104.97566 347.53,108.15 L347.53,178.99 C347.551802,182.162086 350.117914,184.728198 353.29,184.75 L441.55,184.75 L441.55,196.750183 L353.29,196.75 C348.586491,196.771392 344.069443,194.912393 340.743525,191.586475 C337.417607,188.260557 335.558608,183.743509 335.58,179.04 L335.58,108.2 C335.558608,103.496491 337.417607,98.9794429 340.743525,95.6535251 C344.069443,92.3276073 348.586491,90.4686079 353.29,90.49 L441.55,90.4898174 L441.55,102.39 Z" id="Path" fill="#000000"></path>
        <polygon id="Path" fill="#000000" points="607.28 90.43 607.28 102.43 522.28 102.43 522.28 137.5 590.61 137.5 590.61 149.6 522.28 149.6 522.28 184.73 607.28 184.73 607.28 196.73 510.28 196.73 510.28 90.43"></polygon>
        <path d="M782.31,108.29 L782.31,139.43 C782.328699,144.132691 780.468834,148.648172 777.143503,151.973503 C773.818172,155.298834 769.302691,157.158699 764.6,157.14 L748.37,157.14 L781.72,196.69 L765.93,196.69 L732.72,157.14 L693.72,157.14 C691.791189,157.041769 689.868672,156.844844 687.96,156.55 L687.96,196.69 L675.96,196.69 L675.96,90.5798604 L764.51,90.58 C769.212691,90.5613012 773.728172,92.4211656 777.053503,95.7464969 C780.378834,99.0718282 782.238699,103.587309 782.22,108.29 L782.31,108.29 Z M693.76,145.04 L764.6,145.04 C766.093607,145.058995 767.531595,144.474044 768.58782,143.41782 C769.644044,142.361595 770.228995,140.923607 770.21,139.43 L770.21,108.29 C770.233229,106.774746 769.649985,105.313036 768.59,104.23 C767.559506,103.119693 766.104555,102.501339 764.59,102.53 L693.75,102.53 C690.57566,102.546405 688.006405,105.11566 687.99,108.29 L687.99,139.43 C687.958769,140.945053 688.577552,142.401011 689.69,143.43 C690.775253,144.491695 692.242123,145.071956 693.76,145.04 Z" id="Shape" fill="#000000" fill-rule="nonzero"></path>
        <polygon id="Path" fill="#000000" points="845.78 90.43 952 90.43 952 102.43 905 102.43 905 196.74 893 196.74 893 102.43 845.78 102.43"></polygon>
        <polygon id="Path" fill="#000000" points="1016.38 196.69 1016.38 90.43 1028.38 90.43 1028.38 196.69"></polygon>
        <polygon id="Path" fill="#000000" points="1187.87 90.43 1203.22 90.43 1158.8 143.56 1203.37 196.69 1187.87 196.69 1148.32 149.61 1114.08 149.61 1114.08 196.69 1102 196.69 1102 90.43 1114.1 90.43 1114.1 137.5 1148.34 137.5"></polygon>
    </g>
</svg>